<?xml version="1.0" encoding="UTF-8"?>
<svg width="64px" height="24px" viewBox="0 0 64 24" version="1.1" xmlns="http://www.w3.org/2000/svg" xmlns:xlink="http://www.w3.org/1999/xlink">
    <!-- Generator: Sketch 63.1 (92452) - https://sketch.com -->
    <title>MICHELIN / Icons / Stars / 3-Stars</title>
    <desc>Created with Sketch.</desc>
    <g id="MICHELIN-/-Icons-/-Stars-/-3-Stars" stroke="none" stroke-width="1" fill="none" fill-rule="evenodd">
        <path d="M11.9805,3.192 C13.6930714,3.192 14.8254184,4.33013265 14.9041159,6.13297303 L14.9085,6.336 L14.9085,6.72 L14.8605,7.008 C15.8205,6.336 16.4205,6.096 17.2125,6.096 C18.7245,6.096 20.0445,7.536 20.0445,9.144 C20.0445,10.2126316 19.3121343,11.2166427 18.1943131,11.7887167 L18.0045,11.88 L17.7405,12 C19.3245,12.72 20.0445,13.608 20.0445,14.832 C20.0445,16.464 18.7245,17.88 17.2125,17.88 C16.6293,17.88 15.8517,17.66616 15.282108,17.290968 L15.1005,17.16 L14.8605,16.968 C14.8845,17.304 14.9085,17.592 14.9085,17.832 C14.9085,19.56 13.6845,20.808 11.9805,20.808 C10.2045,20.808 9.0525,19.56 9.0525,17.664 L9.05338889,17.4791111 C9.05472222,17.4097778 9.05805556,17.3684444 9.06638889,17.3251111 L9.0765,17.28 L9.1005,16.968 C8.1405,17.64 7.5165,17.88 6.7485,17.88 C5.2365,17.88 3.9165,16.464 3.9165,14.832 C3.9165,13.7666667 4.64435185,12.786963 5.75634774,12.2163786 L5.9565,12.12 L6.2205,12 C4.6365,11.28 3.9165,10.392 3.9165,9.144 C3.9165,7.512 5.2365,6.096 6.7725,6.096 C7.3557,6.096 8.07498,6.34872 8.6679,6.714192 L8.8605,6.84 L9.1005,7.008 C9.0765,6.672 9.0525,6.408 9.0525,6.168 C9.0525,4.44 10.2765,3.192 11.9805,3.192 Z M31.9805,3.192 C33.6930714,3.192 34.8254184,4.33013265 34.9041159,6.13297303 L34.9085,6.336 L34.9085,6.72 L34.8605,7.008 C35.8205,6.336 36.4205,6.096 37.2125,6.096 C38.7245,6.096 40.0445,7.536 40.0445,9.144 C40.0445,10.2126316 39.3121343,11.2166427 38.1943131,11.7887167 L38.0045,11.88 L37.7405,12 C39.3245,12.72 40.0445,13.608 40.0445,14.832 C40.0445,16.464 38.7245,17.88 37.2125,17.88 C36.6293,17.88 35.8517,17.66616 35.282108,17.290968 L35.1005,17.16 L34.8605,16.968 C34.8845,17.304 34.9085,17.592 34.9085,17.832 C34.9085,19.56 33.6845,20.808 31.9805,20.808 C30.2045,20.808 29.0525,19.56 29.0525,17.664 L29.0533889,17.4791111 C29.0547222,17.4097778 29.0580556,17.3684444 29.0663889,17.3251111 L29.0765,17.28 L29.1005,16.968 C28.1405,17.64 27.5165,17.88 26.7485,17.88 C25.2365,17.88 23.9165,16.464 23.9165,14.832 C23.9165,13.7666667 24.6443519,12.786963 25.7563477,12.2163786 L25.9565,12.12 L26.2205,12 C24.6365,11.28 23.9165,10.392 23.9165,9.144 C23.9165,7.512 25.2365,6.096 26.7725,6.096 C27.3557,6.096 28.07498,6.34872 28.6679,6.714192 L28.8605,6.84 L29.1005,7.008 C29.0765,6.672 29.0525,6.408 29.0525,6.168 C29.0525,4.44 30.2765,3.192 31.9805,3.192 Z M51.9805,3.192 C53.6930714,3.192 54.8254184,4.33013265 54.9041159,6.13297303 L54.9085,6.336 L54.9085,6.72 L54.8605,7.008 C55.8205,6.336 56.4205,6.096 57.2125,6.096 C58.7245,6.096 60.0445,7.536 60.0445,9.144 C60.0445,10.2126316 59.3121343,11.2166427 58.1943131,11.7887167 L58.0045,11.88 L57.7405,12 C59.3245,12.72 60.0445,13.608 60.0445,14.832 C60.0445,16.464 58.7245,17.88 57.2125,17.88 C56.6293,17.88 55.8517,17.66616 55.282108,17.290968 L55.1005,17.16 L54.8605,16.968 C54.8845,17.304 54.9085,17.592 54.9085,17.832 C54.9085,19.56 53.6845,20.808 51.9805,20.808 C50.2045,20.808 49.0525,19.56 49.0525,17.664 L49.0533889,17.4791111 C49.0547222,17.4097778 49.0580556,17.3684444 49.0663889,17.3251111 L49.0765,17.28 L49.1005,16.968 C48.1405,17.64 47.5165,17.88 46.7485,17.88 C45.2365,17.88 43.9165,16.464 43.9165,14.832 C43.9165,13.7666667 44.6443519,12.786963 45.7563477,12.2163786 L45.9565,12.12 L46.2205,12 C44.6365,11.28 43.9165,10.392 43.9165,9.144 C43.9165,7.512 45.2365,6.096 46.7725,6.096 C47.3557,6.096 48.07498,6.34872 48.6679,6.714192 L48.8605,6.84 L49.1005,7.008 C49.0765,6.672 49.0525,6.408 49.0525,6.168 C49.0525,4.44 50.2765,3.192 51.9805,3.192 Z M11.9805,4.128 C10.7565,4.128 9.9885,4.944 9.9885,6.264 C9.9885,7.17230769 10.2747959,8.20331361 10.8473876,9.451401 L10.9965,9.768 L10.5405,10.032 C9.1965,8.04 7.9245,7.032 6.7485,7.032 C5.7645,7.032 4.8525,8.04 4.8525,9.144 C4.8525,10.5375484 6.4033845,11.4366119 9.26588659,11.7106812 L9.5565,11.736 L9.5565,12.24 C6.5565,12.48 4.8525,13.416 4.8525,14.832 C4.8525,15.936 5.7645,16.944 6.7485,16.944 C7.87336957,16.944 9.08607278,16.0217467 10.3656059,14.2192475 L10.5405,13.968 L10.9965,14.208 C10.3245,15.6 9.9885,16.752 9.9885,17.736 C9.9885,19.056 10.7565,19.872 11.9805,19.872 C13.2285,19.872 13.9725,19.056 13.9725,17.712 C13.9725,16.8258462 13.6862041,15.7760947 13.1136124,14.5249923 L12.9645,14.208 L13.4205,13.968 C14.7645,15.936 16.0605,16.944 17.2125,16.944 C18.1965,16.944 19.1085,15.936 19.1085,14.832 C19.1085,13.4616774 17.5126623,12.5408866 14.6907631,12.2653913 L14.4045,12.24 L14.4045,11.736 C17.4285,11.496 19.1085,10.584 19.1085,9.144 C19.1085,8.04 18.2205,7.032 17.2125,7.032 C16.110587,7.032 14.8769234,7.95425331 13.5955242,9.77775623 L13.4205,10.032 L12.9645,9.768 C13.6365,8.4 13.9725,7.248 13.9725,6.312 C13.9725,4.944 13.2285,4.128 11.9805,4.128 Z M31.9805,4.128 C30.7565,4.128 29.9885,4.944 29.9885,6.264 C29.9885,7.17230769 30.2747959,8.20331361 30.8473876,9.451401 L30.9965,9.768 L30.5405,10.032 C29.1965,8.04 27.9245,7.032 26.7485,7.032 C25.7645,7.032 24.8525,8.04 24.8525,9.144 C24.8525,10.5375484 26.4033845,11.4366119 29.2658866,11.7106812 L29.5565,11.736 L29.5565,12.24 C26.5565,12.48 24.8525,13.416 24.8525,14.832 C24.8525,15.936 25.7645,16.944 26.7485,16.944 C27.8733696,16.944 29.0860728,16.0217467 30.3656059,14.2192475 L30.5405,13.968 L30.9965,14.208 C30.3245,15.6 29.9885,16.752 29.9885,17.736 C29.9885,19.056 30.7565,19.872 31.9805,19.872 C33.2285,19.872 33.9725,19.056 33.9725,17.712 C33.9725,16.8258462 33.6862041,15.7760947 33.1136124,14.5249923 L32.9645,14.208 L33.4205,13.968 C34.7645,15.936 36.0605,16.944 37.2125,16.944 C38.1965,16.944 39.1085,15.936 39.1085,14.832 C39.1085,13.4616774 37.5126623,12.5408866 34.6907631,12.2653913 L34.4045,12.24 L34.4045,11.736 C37.4285,11.496 39.1085,10.584 39.1085,9.144 C39.1085,8.04 38.2205,7.032 37.2125,7.032 C36.110587,7.032 34.8769234,7.95425331 33.5955242,9.77775623 L33.4205,10.032 L32.9645,9.768 C33.6365,8.4 33.9725,7.248 33.9725,6.312 C33.9725,4.944 33.2285,4.128 31.9805,4.128 Z M51.9805,4.128 C50.7565,4.128 49.9885,4.944 49.9885,6.264 C49.9885,7.17230769 50.2747959,8.20331361 50.8473876,9.451401 L50.9965,9.768 L50.5405,10.032 C49.1965,8.04 47.9245,7.032 46.7485,7.032 C45.7645,7.032 44.8525,8.04 44.8525,9.144 C44.8525,10.5375484 46.4033845,11.4366119 49.2658866,11.7106812 L49.5565,11.736 L49.5565,12.24 C46.5565,12.48 44.8525,13.416 44.8525,14.832 C44.8525,15.936 45.7645,16.944 46.7485,16.944 C47.8733696,16.944 49.0860728,16.0217467 50.3656059,14.2192475 L50.5405,13.968 L50.9965,14.208 C50.3245,15.6 49.9885,16.752 49.9885,17.736 C49.9885,19.056 50.7565,19.872 51.9805,19.872 C53.2285,19.872 53.9725,19.056 53.9725,17.712 C53.9725,16.8258462 53.6862041,15.7760947 53.1136124,14.5249923 L52.9645,14.208 L53.4205,13.968 C54.7645,15.936 56.0605,16.944 57.2125,16.944 C58.1965,16.944 59.1085,15.936 59.1085,14.832 C59.1085,13.4616774 57.5126623,12.5408866 54.6907631,12.2653913 L54.4045,12.24 L54.4045,11.736 C57.4285,11.496 59.1085,10.584 59.1085,9.144 C59.1085,8.04 58.2205,7.032 57.2125,7.032 C56.110587,7.032 54.8769234,7.95425331 53.5955242,9.77775623 L53.4205,10.032 L52.9645,9.768 C53.6365,8.4 53.9725,7.248 53.9725,6.312 C53.9725,4.944 53.2285,4.128 51.9805,4.128 Z" id="Combined-Shape" fill="#BD2333" fill-rule="nonzero"></path>
    </g>
</svg>