<?xml version="1.0" standalone="no"?>
<!DOCTYPE svg PUBLIC "-//W3C//DTD SVG 20010904//EN"
 "http://www.w3.org/TR/2001/REC-SVG-20010904/DTD/svg10.dtd">
<svg version="1.0" xmlns="http://www.w3.org/2000/svg"
 width="256.000000pt" height="197.000000pt" viewBox="0 0 256.000000 197.000000"
 preserveAspectRatio="xMidYMid meet">

<g transform="translate(0.000000,197.000000) scale(0.100000,-0.100000)"
fill="#000000" stroke="none">
<path d="M1217 1450 c-74 -13 -171 -63 -226 -118 -28 -28 -52 -47 -55 -44 -3
3 -6 36 -6 74 l0 68 -420 0 -420 0 0 -150 0 -149 113 -3 112 -3 3 -298 2 -297
188 2 187 3 3 298 2 298 78 -3 c62 -2 76 -6 73 -18 -2 -8 -6 -59 -9 -112 -4
-82 -1 -108 17 -165 29 -90 84 -168 158 -225 192 -145 450 -140 618 13 75 69
92 101 97 182 l4 67 -233 0 c-254 0 -287 6 -318 54 -20 30 -22 84 -5 116 24
44 62 50 320 50 l241 0 -7 73 c-8 89 -19 110 -83 170 -110 103 -266 145 -434
117z"/>
<path d="M1740 1332 l0 -97 115 -125 c63 -68 115 -127 115 -131 0 -3 -35 -44
-78 -90 -166 -178 -152 -154 -152 -258 l0 -91 370 0 370 0 0 155 0 155 -172 2
-173 3 -3 288 -2 287 -195 0 -195 0 0 -98z"/>
</g>
</svg>
